<?xml version="1.0" encoding="utf-8" standalone="no"?>
<!DOCTYPE svg PUBLIC "-//W3C//DTD SVG 1.1//EN"
  "http://www.w3.org/Graphics/SVG/1.1/DTD/svg11.dtd">
<svg xmlns:xlink="http://www.w3.org/1999/xlink" width="1008pt" height="144pt" viewBox="0 0 1008 144" xmlns="http://www.w3.org/2000/svg" version="1.1">
 <metadata>
  <rdf:RDF xmlns:dc="http://purl.org/dc/elements/1.1/" xmlns:cc="http://creativecommons.org/ns#" xmlns:rdf="http://www.w3.org/1999/02/22-rdf-syntax-ns#">
   <cc:Work>
    <dc:type rdf:resource="http://purl.org/dc/dcmitype/StillImage"/>
    <dc:date>2023-11-10T22:42:10.427063</dc:date>
    <dc:format>image/svg+xml</dc:format>
    <dc:creator>
     <cc:Agent>
      <dc:title>Matplotlib v3.6.3, https://matplotlib.org/</dc:title>
     </cc:Agent>
    </dc:creator>
   </cc:Work>
  </rdf:RDF>
 </metadata>
 <defs>
  <style type="text/css">*{stroke-linejoin: round; stroke-linecap: butt}</style>
 </defs>
 <g id="figure_1">
  <g id="patch_1">
   <path d="M 0 144 
L 1008 144 
L 1008 0 
L 0 0 
z
" style="fill: #ffffff"/>
  </g>
  <g id="axes_1">
   <g id="patch_2">
    <path d="M 126 128.16 
L 481.090909 128.16 
L 481.090909 17.28 
L 126 17.28 
z
" style="fill: #ffffff"/>
   </g>
   <g id="matplotlib.axis_1"/>
   <g id="matplotlib.axis_2"/>
   <g id="line2d_1">
    <path d="M 142.140496 123.12 
L 161.547906 122.947503 
L 172.545438 122.635087 
L 180.308402 122.202866 
L 186.777539 121.621936 
L 191.952848 120.951697 
L 196.481243 120.169161 
L 201.009639 119.159174 
L 204.891121 118.076611 
L 208.772603 116.760107 
L 212.654085 115.176395 
L 215.888653 113.628395 
L 219.123222 111.85286 
L 222.35779 109.832242 
L 225.592358 107.550919 
L 228.826927 104.995972 
L 232.061495 102.158003 
L 235.296063 99.031974 
L 238.530632 95.618023 
L 241.7652 91.922227 
L 245.646682 87.133608 
L 249.528164 81.993392 
L 254.056559 75.621376 
L 259.878782 67.007223 
L 272.817056 47.698006 
L 276.698538 42.33794 
L 279.933106 38.184201 
L 283.167674 34.38918 
L 285.755329 31.655778 
L 288.342983 29.225275 
L 290.930638 27.12593 
L 293.518293 25.38257 
L 295.459034 24.321399 
L 297.399775 23.479547 
L 299.340516 22.862791 
L 301.281257 22.475382 
L 303.221998 22.32 
L 305.162739 22.397721 
L 307.10348 22.708007 
L 309.044221 23.24871 
L 310.984962 24.016097 
L 312.925703 25.004895 
L 314.866444 26.208349 
L 317.454098 28.13257 
L 320.041753 30.400824 
L 322.629408 32.986503 
L 325.217062 35.85983 
L 328.451631 39.806477 
L 332.333113 44.973576 
L 336.861508 51.441979 
L 343.330645 61.135144 
L 352.387436 74.683747 
L 357.562745 81.993392 
L 361.444227 87.133608 
L 365.325709 91.922227 
L 369.207191 96.323646 
L 372.44176 99.680299 
L 375.676328 102.74855 
L 378.910896 105.52936 
L 382.145464 108.028706 
L 385.380033 110.256756 
L 388.614601 112.227035 
L 391.849169 113.955611 
L 395.083738 115.460327 
L 398.96522 116.997174 
L 402.846702 118.272399 
L 406.728184 119.319134 
L 411.256579 120.293827 
L 415.784975 121.047471 
L 420.960284 121.69157 
L 427.429421 122.248424 
L 435.192385 122.661459 
L 444.89609 122.935556 
L 459.12819 123.094206 
L 464.950413 123.12 
L 464.950413 123.12 
" clip-path="url(#p9835a818c8)" style="fill: none; stroke: #000000; stroke-width: 1.5; stroke-linecap: square"/>
   </g>
   <g id="patch_3">
    <path d="M 126 123.153827 
L 481.090909 123.153827 
" style="fill: none; stroke: #000000; stroke-width: 0.8; stroke-linejoin: miter; stroke-linecap: square"/>
   </g>
   <g id="text_1">
    <!-- Unimodal Gaussian Distribution -->
    <g transform="translate(208.674205 11.28) scale(0.12 -0.12)">
     <defs>
      <path id="DejaVuSans-55" d="M 556 4666 
L 1191 4666 
L 1191 1831 
Q 1191 1081 1462 751 
Q 1734 422 2344 422 
Q 2950 422 3222 751 
Q 3494 1081 3494 1831 
L 3494 4666 
L 4128 4666 
L 4128 1753 
Q 4128 841 3676 375 
Q 3225 -91 2344 -91 
Q 1459 -91 1007 375 
Q 556 841 556 1753 
L 556 4666 
z
" transform="scale(0.015625)"/>
      <path id="DejaVuSans-6e" d="M 3513 2113 
L 3513 0 
L 2938 0 
L 2938 2094 
Q 2938 2591 2744 2837 
Q 2550 3084 2163 3084 
Q 1697 3084 1428 2787 
Q 1159 2491 1159 1978 
L 1159 0 
L 581 0 
L 581 3500 
L 1159 3500 
L 1159 2956 
Q 1366 3272 1645 3428 
Q 1925 3584 2291 3584 
Q 2894 3584 3203 3211 
Q 3513 2838 3513 2113 
z
" transform="scale(0.015625)"/>
      <path id="DejaVuSans-69" d="M 603 3500 
L 1178 3500 
L 1178 0 
L 603 0 
L 603 3500 
z
M 603 4863 
L 1178 4863 
L 1178 4134 
L 603 4134 
L 603 4863 
z
" transform="scale(0.015625)"/>
      <path id="DejaVuSans-6d" d="M 3328 2828 
Q 3544 3216 3844 3400 
Q 4144 3584 4550 3584 
Q 5097 3584 5394 3201 
Q 5691 2819 5691 2113 
L 5691 0 
L 5113 0 
L 5113 2094 
Q 5113 2597 4934 2840 
Q 4756 3084 4391 3084 
Q 3944 3084 3684 2787 
Q 3425 2491 3425 1978 
L 3425 0 
L 2847 0 
L 2847 2094 
Q 2847 2600 2669 2842 
Q 2491 3084 2119 3084 
Q 1678 3084 1418 2786 
Q 1159 2488 1159 1978 
L 1159 0 
L 581 0 
L 581 3500 
L 1159 3500 
L 1159 2956 
Q 1356 3278 1631 3431 
Q 1906 3584 2284 3584 
Q 2666 3584 2933 3390 
Q 3200 3197 3328 2828 
z
" transform="scale(0.015625)"/>
      <path id="DejaVuSans-6f" d="M 1959 3097 
Q 1497 3097 1228 2736 
Q 959 2375 959 1747 
Q 959 1119 1226 758 
Q 1494 397 1959 397 
Q 2419 397 2687 759 
Q 2956 1122 2956 1747 
Q 2956 2369 2687 2733 
Q 2419 3097 1959 3097 
z
M 1959 3584 
Q 2709 3584 3137 3096 
Q 3566 2609 3566 1747 
Q 3566 888 3137 398 
Q 2709 -91 1959 -91 
Q 1206 -91 779 398 
Q 353 888 353 1747 
Q 353 2609 779 3096 
Q 1206 3584 1959 3584 
z
" transform="scale(0.015625)"/>
      <path id="DejaVuSans-64" d="M 2906 2969 
L 2906 4863 
L 3481 4863 
L 3481 0 
L 2906 0 
L 2906 525 
Q 2725 213 2448 61 
Q 2172 -91 1784 -91 
Q 1150 -91 751 415 
Q 353 922 353 1747 
Q 353 2572 751 3078 
Q 1150 3584 1784 3584 
Q 2172 3584 2448 3432 
Q 2725 3281 2906 2969 
z
M 947 1747 
Q 947 1113 1208 752 
Q 1469 391 1925 391 
Q 2381 391 2643 752 
Q 2906 1113 2906 1747 
Q 2906 2381 2643 2742 
Q 2381 3103 1925 3103 
Q 1469 3103 1208 2742 
Q 947 2381 947 1747 
z
" transform="scale(0.015625)"/>
      <path id="DejaVuSans-61" d="M 2194 1759 
Q 1497 1759 1228 1600 
Q 959 1441 959 1056 
Q 959 750 1161 570 
Q 1363 391 1709 391 
Q 2188 391 2477 730 
Q 2766 1069 2766 1631 
L 2766 1759 
L 2194 1759 
z
M 3341 1997 
L 3341 0 
L 2766 0 
L 2766 531 
Q 2569 213 2275 61 
Q 1981 -91 1556 -91 
Q 1019 -91 701 211 
Q 384 513 384 1019 
Q 384 1609 779 1909 
Q 1175 2209 1959 2209 
L 2766 2209 
L 2766 2266 
Q 2766 2663 2505 2880 
Q 2244 3097 1772 3097 
Q 1472 3097 1187 3025 
Q 903 2953 641 2809 
L 641 3341 
Q 956 3463 1253 3523 
Q 1550 3584 1831 3584 
Q 2591 3584 2966 3190 
Q 3341 2797 3341 1997 
z
" transform="scale(0.015625)"/>
      <path id="DejaVuSans-6c" d="M 603 4863 
L 1178 4863 
L 1178 0 
L 603 0 
L 603 4863 
z
" transform="scale(0.015625)"/>
      <path id="DejaVuSans-20" transform="scale(0.015625)"/>
      <path id="DejaVuSans-47" d="M 3809 666 
L 3809 1919 
L 2778 1919 
L 2778 2438 
L 4434 2438 
L 4434 434 
Q 4069 175 3628 42 
Q 3188 -91 2688 -91 
Q 1594 -91 976 548 
Q 359 1188 359 2328 
Q 359 3472 976 4111 
Q 1594 4750 2688 4750 
Q 3144 4750 3555 4637 
Q 3966 4525 4313 4306 
L 4313 3634 
Q 3963 3931 3569 4081 
Q 3175 4231 2741 4231 
Q 1884 4231 1454 3753 
Q 1025 3275 1025 2328 
Q 1025 1384 1454 906 
Q 1884 428 2741 428 
Q 3075 428 3337 486 
Q 3600 544 3809 666 
z
" transform="scale(0.015625)"/>
      <path id="DejaVuSans-75" d="M 544 1381 
L 544 3500 
L 1119 3500 
L 1119 1403 
Q 1119 906 1312 657 
Q 1506 409 1894 409 
Q 2359 409 2629 706 
Q 2900 1003 2900 1516 
L 2900 3500 
L 3475 3500 
L 3475 0 
L 2900 0 
L 2900 538 
Q 2691 219 2414 64 
Q 2138 -91 1772 -91 
Q 1169 -91 856 284 
Q 544 659 544 1381 
z
M 1991 3584 
L 1991 3584 
z
" transform="scale(0.015625)"/>
      <path id="DejaVuSans-73" d="M 2834 3397 
L 2834 2853 
Q 2591 2978 2328 3040 
Q 2066 3103 1784 3103 
Q 1356 3103 1142 2972 
Q 928 2841 928 2578 
Q 928 2378 1081 2264 
Q 1234 2150 1697 2047 
L 1894 2003 
Q 2506 1872 2764 1633 
Q 3022 1394 3022 966 
Q 3022 478 2636 193 
Q 2250 -91 1575 -91 
Q 1294 -91 989 -36 
Q 684 19 347 128 
L 347 722 
Q 666 556 975 473 
Q 1284 391 1588 391 
Q 1994 391 2212 530 
Q 2431 669 2431 922 
Q 2431 1156 2273 1281 
Q 2116 1406 1581 1522 
L 1381 1569 
Q 847 1681 609 1914 
Q 372 2147 372 2553 
Q 372 3047 722 3315 
Q 1072 3584 1716 3584 
Q 2034 3584 2315 3537 
Q 2597 3491 2834 3397 
z
" transform="scale(0.015625)"/>
      <path id="DejaVuSans-44" d="M 1259 4147 
L 1259 519 
L 2022 519 
Q 2988 519 3436 956 
Q 3884 1394 3884 2338 
Q 3884 3275 3436 3711 
Q 2988 4147 2022 4147 
L 1259 4147 
z
M 628 4666 
L 1925 4666 
Q 3281 4666 3915 4102 
Q 4550 3538 4550 2338 
Q 4550 1131 3912 565 
Q 3275 0 1925 0 
L 628 0 
L 628 4666 
z
" transform="scale(0.015625)"/>
      <path id="DejaVuSans-74" d="M 1172 4494 
L 1172 3500 
L 2356 3500 
L 2356 3053 
L 1172 3053 
L 1172 1153 
Q 1172 725 1289 603 
Q 1406 481 1766 481 
L 2356 481 
L 2356 0 
L 1766 0 
Q 1100 0 847 248 
Q 594 497 594 1153 
L 594 3053 
L 172 3053 
L 172 3500 
L 594 3500 
L 594 4494 
L 1172 4494 
z
" transform="scale(0.015625)"/>
      <path id="DejaVuSans-72" d="M 2631 2963 
Q 2534 3019 2420 3045 
Q 2306 3072 2169 3072 
Q 1681 3072 1420 2755 
Q 1159 2438 1159 1844 
L 1159 0 
L 581 0 
L 581 3500 
L 1159 3500 
L 1159 2956 
Q 1341 3275 1631 3429 
Q 1922 3584 2338 3584 
Q 2397 3584 2469 3576 
Q 2541 3569 2628 3553 
L 2631 2963 
z
" transform="scale(0.015625)"/>
      <path id="DejaVuSans-62" d="M 3116 1747 
Q 3116 2381 2855 2742 
Q 2594 3103 2138 3103 
Q 1681 3103 1420 2742 
Q 1159 2381 1159 1747 
Q 1159 1113 1420 752 
Q 1681 391 2138 391 
Q 2594 391 2855 752 
Q 3116 1113 3116 1747 
z
M 1159 2969 
Q 1341 3281 1617 3432 
Q 1894 3584 2278 3584 
Q 2916 3584 3314 3078 
Q 3713 2572 3713 1747 
Q 3713 922 3314 415 
Q 2916 -91 2278 -91 
Q 1894 -91 1617 61 
Q 1341 213 1159 525 
L 1159 0 
L 581 0 
L 581 4863 
L 1159 4863 
L 1159 2969 
z
" transform="scale(0.015625)"/>
     </defs>
     <use xlink:href="#DejaVuSans-55"/>
     <use xlink:href="#DejaVuSans-6e" x="73.193359"/>
     <use xlink:href="#DejaVuSans-69" x="136.572266"/>
     <use xlink:href="#DejaVuSans-6d" x="164.355469"/>
     <use xlink:href="#DejaVuSans-6f" x="261.767578"/>
     <use xlink:href="#DejaVuSans-64" x="322.949219"/>
     <use xlink:href="#DejaVuSans-61" x="386.425781"/>
     <use xlink:href="#DejaVuSans-6c" x="447.705078"/>
     <use xlink:href="#DejaVuSans-20" x="475.488281"/>
     <use xlink:href="#DejaVuSans-47" x="507.275391"/>
     <use xlink:href="#DejaVuSans-61" x="584.765625"/>
     <use xlink:href="#DejaVuSans-75" x="646.044922"/>
     <use xlink:href="#DejaVuSans-73" x="709.423828"/>
     <use xlink:href="#DejaVuSans-73" x="761.523438"/>
     <use xlink:href="#DejaVuSans-69" x="813.623047"/>
     <use xlink:href="#DejaVuSans-61" x="841.40625"/>
     <use xlink:href="#DejaVuSans-6e" x="902.685547"/>
     <use xlink:href="#DejaVuSans-20" x="966.064453"/>
     <use xlink:href="#DejaVuSans-44" x="997.851562"/>
     <use xlink:href="#DejaVuSans-69" x="1074.853516"/>
     <use xlink:href="#DejaVuSans-73" x="1102.636719"/>
     <use xlink:href="#DejaVuSans-74" x="1154.736328"/>
     <use xlink:href="#DejaVuSans-72" x="1193.945312"/>
     <use xlink:href="#DejaVuSans-69" x="1235.058594"/>
     <use xlink:href="#DejaVuSans-62" x="1262.841797"/>
     <use xlink:href="#DejaVuSans-75" x="1326.318359"/>
     <use xlink:href="#DejaVuSans-74" x="1389.697266"/>
     <use xlink:href="#DejaVuSans-69" x="1428.90625"/>
     <use xlink:href="#DejaVuSans-6f" x="1456.689453"/>
     <use xlink:href="#DejaVuSans-6e" x="1517.871094"/>
    </g>
   </g>
  </g>
  <g id="axes_2">
   <g id="patch_4">
    <path d="M 552.109091 128.16 
L 907.2 128.16 
L 907.2 17.28 
L 552.109091 17.28 
z
" style="fill: #ffffff"/>
   </g>
   <g id="matplotlib.axis_3"/>
   <g id="matplotlib.axis_4"/>
   <g id="line2d_2">
    <path d="M 568.249587 123.119999 
L 585.069342 123.012039 
L 589.468355 122.76011 
L 592.314775 122.383439 
L 594.643664 121.843851 
L 596.455022 121.206828 
L 598.007615 120.455166 
L 599.560208 119.461525 
L 601.112801 118.169535 
L 602.406628 116.820561 
L 603.700455 115.184109 
L 604.994283 113.222446 
L 606.28811 110.899225 
L 607.840703 107.588007 
L 609.393296 103.662996 
L 610.945888 99.096 
L 612.498481 93.88283 
L 614.30984 87.020254 
L 616.379963 78.277586 
L 619.226383 65.18161 
L 623.625396 44.879902 
L 625.436755 37.51513 
L 626.989347 32.090105 
L 628.283175 28.359883 
L 629.318236 25.970774 
L 630.353298 24.159369 
L 631.129595 23.20092 
L 631.905891 22.597182 
L 632.682188 22.354666 
L 633.328583 22.435399 
L 633.845596 22.677212 
L 634.493546 23.200919 
L 635.269842 24.159367 
L 636.172154 25.709887 
L 637.0812 27.710707 
L 638.240205 30.876995 
L 639.41009 34.684585 
L 640.962682 40.553997 
L 643.032806 49.453922 
L 646.655523 66.40145 
L 649.872995 81.02372 
L 651.941047 89.484711 
L 653.750592 96.054593 
L 655.453548 101.452481 
L 657.111176 105.952419 
L 658.558734 109.295797 
L 660.111327 112.30311 
L 661.66392 114.762944 
L 663.056824 116.549938 
L 664.349356 117.894925 
L 665.641888 118.971725 
L 667.097994 119.903326 
L 668.650587 120.608638 
L 670.20318 121.055147 
L 671.846043 121.27605 
L 673.397081 121.263952 
L 674.94812 121.041235 
L 676.499159 120.600619 
L 678.050197 119.924867 
L 679.601236 118.988341 
L 681.152275 117.759113 
L 682.703313 116.201666 
L 684.254352 114.280168 
L 685.805391 111.962305 
L 687.356429 109.223523 
L 689.093059 105.64172 
L 690.717013 101.810001 
L 692.785064 96.30517 
L 695.30343 88.850946 
L 702.349803 67.499564 
L 703.900841 63.666743 
L 705.193374 60.959881 
L 706.485906 58.776645 
L 707.519932 57.449297 
L 708.553957 56.521542 
L 709.329477 56.098478 
L 710.104996 55.914127 
L 710.880515 55.970072 
L 711.656035 56.265215 
L 712.431554 56.795773 
L 713.207073 57.555328 
L 714.241099 58.908438 
L 715.275125 60.62457 
L 716.567657 63.226683 
L 718.118696 66.911017 
L 720.186747 72.509069 
L 726.649408 90.615435 
L 728.200447 94.139246 
L 729.492979 96.607336 
L 730.785511 98.577824 
L 731.819537 99.757324 
L 732.853563 100.557128 
L 733.629082 100.895334 
L 734.404601 101.001257 
L 735.180121 100.869131 
L 735.95564 100.494561 
L 736.731159 99.874564 
L 737.506679 99.007625 
L 738.540704 97.46784 
L 739.57473 95.493818 
L 740.867262 92.431444 
L 742.159795 88.739139 
L 743.710833 83.545385 
L 745.520378 76.581262 
L 747.846936 66.575088 
L 753.792584 40.289823 
L 755.343623 34.507381 
L 756.636155 30.379458 
L 757.928687 27.00861 
L 758.962713 24.925387 
L 759.738232 23.748278 
L 760.513752 22.916263 
L 761.289271 22.43866 
L 761.806284 22.32 
L 762.323297 22.361983 
L 762.84031 22.564449 
L 763.615829 23.166768 
L 764.391348 24.121382 
L 765.166868 25.417994 
L 766.200893 27.654213 
L 767.234919 30.430938 
L 768.527451 34.582325 
L 770.07849 40.404166 
L 772.146542 49.21184 
L 780.160241 84.723397 
L 781.969786 91.202551 
L 783.520825 95.96788 
L 784.813357 99.340545 
L 786.105889 102.153271 
L 787.398422 104.405065 
L 788.432447 105.80927 
L 789.466473 106.870765 
L 790.500499 107.602788 
L 791.534525 108.02152 
L 792.56855 108.145684 
L 793.602576 107.996214 
L 794.636602 107.595987 
L 795.670628 106.969605 
L 796.96316 105.908552 
L 798.514198 104.299182 
L 800.323744 102.083416 
L 807.561924 92.796522 
L 809.112963 91.357958 
L 810.405495 90.445053 
L 811.698027 89.826548 
L 812.732053 89.559037 
L 813.766078 89.501084 
L 814.800104 89.655016 
L 815.83413 90.018819 
L 816.868156 90.586273 
L 818.160688 91.566126 
L 819.45322 92.820386 
L 821.004259 94.638091 
L 822.813804 97.099488 
L 825.398868 101.016693 
L 830.827504 109.347407 
L 833.154061 112.466967 
L 835.222113 114.869344 
L 837.031658 116.659911 
L 838.841203 118.160254 
L 840.650748 119.386199 
L 842.460293 120.363781 
L 844.528345 121.218053 
L 846.596396 121.840787 
L 849.181461 122.368451 
L 852.283538 122.743471 
L 856.161135 122.973664 
L 862.365289 123.09326 
L 880.46074 123.11995 
L 891.059504 123.12 
L 891.059504 123.12 
" clip-path="url(#p99f17502d8)" style="fill: none; stroke: #000000; stroke-width: 1.5; stroke-linecap: square"/>
   </g>
   <g id="patch_5">
    <path d="M 552.109091 123.120376 
L 907.2 123.120376 
" style="fill: none; stroke: #000000; stroke-width: 0.8; stroke-linejoin: miter; stroke-linecap: square"/>
   </g>
   <g id="text_2">
    <!-- Merged Multimodal and Bimodal Gaussian Distributions -->
    <g transform="translate(562.851733 11.28) scale(0.12 -0.12)">
     <defs>
      <path id="DejaVuSans-4d" d="M 628 4666 
L 1569 4666 
L 2759 1491 
L 3956 4666 
L 4897 4666 
L 4897 0 
L 4281 0 
L 4281 4097 
L 3078 897 
L 2444 897 
L 1241 4097 
L 1241 0 
L 628 0 
L 628 4666 
z
" transform="scale(0.015625)"/>
      <path id="DejaVuSans-65" d="M 3597 1894 
L 3597 1613 
L 953 1613 
Q 991 1019 1311 708 
Q 1631 397 2203 397 
Q 2534 397 2845 478 
Q 3156 559 3463 722 
L 3463 178 
Q 3153 47 2828 -22 
Q 2503 -91 2169 -91 
Q 1331 -91 842 396 
Q 353 884 353 1716 
Q 353 2575 817 3079 
Q 1281 3584 2069 3584 
Q 2775 3584 3186 3129 
Q 3597 2675 3597 1894 
z
M 3022 2063 
Q 3016 2534 2758 2815 
Q 2500 3097 2075 3097 
Q 1594 3097 1305 2825 
Q 1016 2553 972 2059 
L 3022 2063 
z
" transform="scale(0.015625)"/>
      <path id="DejaVuSans-67" d="M 2906 1791 
Q 2906 2416 2648 2759 
Q 2391 3103 1925 3103 
Q 1463 3103 1205 2759 
Q 947 2416 947 1791 
Q 947 1169 1205 825 
Q 1463 481 1925 481 
Q 2391 481 2648 825 
Q 2906 1169 2906 1791 
z
M 3481 434 
Q 3481 -459 3084 -895 
Q 2688 -1331 1869 -1331 
Q 1566 -1331 1297 -1286 
Q 1028 -1241 775 -1147 
L 775 -588 
Q 1028 -725 1275 -790 
Q 1522 -856 1778 -856 
Q 2344 -856 2625 -561 
Q 2906 -266 2906 331 
L 2906 616 
Q 2728 306 2450 153 
Q 2172 0 1784 0 
Q 1141 0 747 490 
Q 353 981 353 1791 
Q 353 2603 747 3093 
Q 1141 3584 1784 3584 
Q 2172 3584 2450 3431 
Q 2728 3278 2906 2969 
L 2906 3500 
L 3481 3500 
L 3481 434 
z
" transform="scale(0.015625)"/>
      <path id="DejaVuSans-42" d="M 1259 2228 
L 1259 519 
L 2272 519 
Q 2781 519 3026 730 
Q 3272 941 3272 1375 
Q 3272 1813 3026 2020 
Q 2781 2228 2272 2228 
L 1259 2228 
z
M 1259 4147 
L 1259 2741 
L 2194 2741 
Q 2656 2741 2882 2914 
Q 3109 3088 3109 3444 
Q 3109 3797 2882 3972 
Q 2656 4147 2194 4147 
L 1259 4147 
z
M 628 4666 
L 2241 4666 
Q 2963 4666 3353 4366 
Q 3744 4066 3744 3513 
Q 3744 3084 3544 2831 
Q 3344 2578 2956 2516 
Q 3422 2416 3680 2098 
Q 3938 1781 3938 1306 
Q 3938 681 3513 340 
Q 3088 0 2303 0 
L 628 0 
L 628 4666 
z
" transform="scale(0.015625)"/>
     </defs>
     <use xlink:href="#DejaVuSans-4d"/>
     <use xlink:href="#DejaVuSans-65" x="86.279297"/>
     <use xlink:href="#DejaVuSans-72" x="147.802734"/>
     <use xlink:href="#DejaVuSans-67" x="187.166016"/>
     <use xlink:href="#DejaVuSans-65" x="250.642578"/>
     <use xlink:href="#DejaVuSans-64" x="312.166016"/>
     <use xlink:href="#DejaVuSans-20" x="375.642578"/>
     <use xlink:href="#DejaVuSans-4d" x="407.429688"/>
     <use xlink:href="#DejaVuSans-75" x="493.708984"/>
     <use xlink:href="#DejaVuSans-6c" x="557.087891"/>
     <use xlink:href="#DejaVuSans-74" x="584.871094"/>
     <use xlink:href="#DejaVuSans-69" x="624.080078"/>
     <use xlink:href="#DejaVuSans-6d" x="651.863281"/>
     <use xlink:href="#DejaVuSans-6f" x="749.275391"/>
     <use xlink:href="#DejaVuSans-64" x="810.457031"/>
     <use xlink:href="#DejaVuSans-61" x="873.933594"/>
     <use xlink:href="#DejaVuSans-6c" x="935.212891"/>
     <use xlink:href="#DejaVuSans-20" x="962.996094"/>
     <use xlink:href="#DejaVuSans-61" x="994.783203"/>
     <use xlink:href="#DejaVuSans-6e" x="1056.0625"/>
     <use xlink:href="#DejaVuSans-64" x="1119.441406"/>
     <use xlink:href="#DejaVuSans-20" x="1182.917969"/>
     <use xlink:href="#DejaVuSans-42" x="1214.705078"/>
     <use xlink:href="#DejaVuSans-69" x="1283.308594"/>
     <use xlink:href="#DejaVuSans-6d" x="1311.091797"/>
     <use xlink:href="#DejaVuSans-6f" x="1408.503906"/>
     <use xlink:href="#DejaVuSans-64" x="1469.685547"/>
     <use xlink:href="#DejaVuSans-61" x="1533.162109"/>
     <use xlink:href="#DejaVuSans-6c" x="1594.441406"/>
     <use xlink:href="#DejaVuSans-20" x="1622.224609"/>
     <use xlink:href="#DejaVuSans-47" x="1654.011719"/>
     <use xlink:href="#DejaVuSans-61" x="1731.501953"/>
     <use xlink:href="#DejaVuSans-75" x="1792.78125"/>
     <use xlink:href="#DejaVuSans-73" x="1856.160156"/>
     <use xlink:href="#DejaVuSans-73" x="1908.259766"/>
     <use xlink:href="#DejaVuSans-69" x="1960.359375"/>
     <use xlink:href="#DejaVuSans-61" x="1988.142578"/>
     <use xlink:href="#DejaVuSans-6e" x="2049.421875"/>
     <use xlink:href="#DejaVuSans-20" x="2112.800781"/>
     <use xlink:href="#DejaVuSans-44" x="2144.587891"/>
     <use xlink:href="#DejaVuSans-69" x="2221.589844"/>
     <use xlink:href="#DejaVuSans-73" x="2249.373047"/>
     <use xlink:href="#DejaVuSans-74" x="2301.472656"/>
     <use xlink:href="#DejaVuSans-72" x="2340.681641"/>
     <use xlink:href="#DejaVuSans-69" x="2381.794922"/>
     <use xlink:href="#DejaVuSans-62" x="2409.578125"/>
     <use xlink:href="#DejaVuSans-75" x="2473.054688"/>
     <use xlink:href="#DejaVuSans-74" x="2536.433594"/>
     <use xlink:href="#DejaVuSans-69" x="2575.642578"/>
     <use xlink:href="#DejaVuSans-6f" x="2603.425781"/>
     <use xlink:href="#DejaVuSans-6e" x="2664.607422"/>
     <use xlink:href="#DejaVuSans-73" x="2727.986328"/>
    </g>
   </g>
  </g>
 </g>
 <defs>
  <clipPath id="p9835a818c8">
   <rect x="126" y="17.28" width="355.090909" height="110.88"/>
  </clipPath>
  <clipPath id="p99f17502d8">
   <rect x="552.109091" y="17.28" width="355.090909" height="110.88"/>
  </clipPath>
 </defs>
</svg>
